<svg version="1.1" viewBox="0.0 0.0 649.0 485.0" fill="none" stroke="none" stroke-linecap="square" stroke-miterlimit="10" xmlns:xlink="http://www.w3.org/1999/xlink" xmlns="http://www.w3.org/2000/svg"><clipPath id="p.0"><path d="m0 0l649.0 0l0 485.0l-649.0 0l0 -485.0z" clip-rule="nonzero"/></clipPath><g clip-path="url(#p.0)"><path fill="#000000" fill-opacity="0.0" d="m0 0l649.0 0l0 485.0l-649.0 0z" fill-rule="evenodd"/><path fill="#88c0d0" d="m31.519686 468.3622l194.38202 -378.26773l133.83844 378.26773z" fill-rule="evenodd"/><path stroke="#88c0d0" stroke-width="2.0" stroke-linejoin="round" stroke-linecap="butt" d="m31.519686 468.3622l194.38202 -378.26773l133.83844 378.26773z" fill-rule="evenodd"/><path fill="#5e81ac" d="m412.7575 222.75516l-135.9685 261.5433l-135.9685 -261.5433z" fill-rule="evenodd"/><path stroke="#5e81ac" stroke-width="2.0" stroke-linejoin="round" stroke-linecap="butt" d="m412.7575 222.75516l-135.9685 261.5433l-135.9685 -261.5433z" fill-rule="evenodd"/><path fill="#666666" d="m276.48984 484.30145l135.9685 -261.5433l135.96854 261.5433z" fill-rule="evenodd"/><path stroke="#666666" stroke-width="2.0" stroke-linejoin="round" stroke-linecap="butt" d="m276.48984 484.30145l135.9685 -261.5433l135.96854 261.5433z" fill-rule="evenodd"/><path fill="#5e81ac" d="m0 484.29922l130.77936 -246.89764l98.44899 246.89764z" fill-rule="evenodd"/><path stroke="#5e81ac" stroke-width="2.0" stroke-linejoin="round" stroke-linecap="butt" d="m0 484.29922l130.77936 -246.89764l98.44899 246.89764z" fill-rule="evenodd"/><path fill="#5e81ac" d="m276.4908 484.3176l185.43307 -378.26773l185.43304 378.26773z" fill-rule="evenodd"/><path stroke="#5e81ac" stroke-width="2.0" stroke-linejoin="round" stroke-linecap="butt" d="m276.4908 484.3176l185.43307 -378.26773l185.43304 378.26773z" fill-rule="evenodd"/><path fill="#88c0d0" d="m205.22047 134.99213l71.574814 -134.99213l71.5748 134.99213z" fill-rule="evenodd"/><path stroke="#88c0d0" stroke-width="1.0" stroke-linejoin="round" stroke-linecap="butt" d="m205.22047 134.99213l71.574814 -134.99213l71.5748 134.99213z" fill-rule="evenodd"/><path fill="#5e81ac" d="m140.82677 222.7559l70.13112 -134.99213l131.67477 0l70.131134 134.99213z" fill-rule="evenodd"/><path stroke="#5e81ac" stroke-width="2.0" stroke-linejoin="round" stroke-linecap="butt" d="m140.82677 222.7559l70.13112 -134.99213l131.67477 0l70.131134 134.99213z" fill-rule="evenodd"/><path fill="#5e81ac" d="m205.21523 99.13386l30.761414 -63.27559l112.3882 63.27559z" fill-rule="evenodd"/><path stroke="#5e81ac" stroke-width="1.0" stroke-linejoin="round" stroke-linecap="butt" d="m205.21523 99.13386l30.761414 -63.27559l112.3882 63.27559z" fill-rule="evenodd"/><path fill="#5e81ac" d="m205.22047 199.58267l195.68504 0l0 110.77167l-195.68504 0z" fill-rule="evenodd"/><path stroke="#5e81ac" stroke-width="1.0" stroke-linejoin="round" stroke-linecap="butt" d="m205.22047 199.58267l195.68504 0l0 110.77167l-195.68504 0z" fill-rule="evenodd"/><path fill="#5e81ac" d="m385.25198 283.9475l-106.83533 198.3937l-97.82611 -198.3937z" fill-rule="evenodd"/><path stroke="#5e81ac" stroke-width="1.0" stroke-linejoin="round" stroke-linecap="butt" d="m385.25198 283.9475l-106.83533 198.3937l-97.82611 -198.3937z" fill-rule="evenodd"/></g></svg>